<!--suppress ALL -->
<svg height="500" viewBox="0 0 500 500" width="500" xmlns="http://www.w3.org/2000/svg">

    <ellipse style="fill: #FF5722; stroke-width: 10px;" cx="250" cy="250" rx="230" ry="230"></ellipse>
    <line style="stroke-width: 10px; stroke: rgb(255, 255, 255); stroke-linecap: round;" x1="45" x2="455" y1="340" y2="340"></line>
    <line style="stroke-width: 10px; stroke: rgb(255, 255, 255); stroke-linecap: round;" x1="18.9" x2="472" y1="230" y2="230"></line>
    <line style="stroke-width: 10px; stroke: rgb(255, 255, 255); stroke-linecap: round;" x1="60" x2="435" y1="125" y2="125"></line>
    <line style="stroke-width: 10px; stroke: rgb(255, 255, 255); stroke-linecap: round;" x1="199.324" x2="399.324" y1="470.402" y2="82.337"></line>
    <path style="fill: rgb(28, 87, 164);"
        d="M 820.253 -93.353 m -250 0 a 250 250 0 1 0 500 0 a 250 250 0 1 0 -500 0 Z M 820.253 -93.353 m -225 0 a 225 225 0 0 1 450 0 a 225 225 0 0 1 -450 0 Z"
        transform="matrix(-0.707586, 0.706627, -0.706627, -0.707586, 764.43396, -395.667969)"></path>
    <path style="fill: rgb(255, 255, 255); white-space: pre;"
        d="M 280.534 414.066 L 280.534 400.243 L 289.95 400.243 C 294.432 400.243 297.753 399.125 299.916 396.887 C 302.078 394.642 303.159 391.667 303.159 387.961 C 303.159 384.371 302.085 381.579 299.941 379.584 C 297.804 377.59 294.862 376.592 291.114 376.592 C 287.725 376.592 284.892 377.518 282.613 379.371 C 280.335 381.224 279.195 383.638 279.195 386.608 L 261.516 386.608 C 261.516 381.967 262.772 377.803 265.285 374.113 C 267.789 370.424 271.295 367.54 275.802 365.461 C 280.3 363.383 285.258 362.344 290.676 362.344 C 300.091 362.344 307.469 364.597 312.812 369.105 C 318.154 373.604 320.825 379.806 320.825 387.71 C 320.825 391.791 319.582 395.544 317.094 398.966 C 314.606 402.387 311.347 405.016 307.315 406.853 C 312.324 408.64 316.063 411.327 318.533 414.917 C 320.996 418.506 322.227 422.746 322.227 427.637 C 322.227 435.542 319.344 441.877 313.576 446.643 C 307.807 451.417 300.176 453.805 290.676 453.805 C 281.796 453.805 274.534 451.46 268.891 446.768 C 263.248 442.085 260.427 435.892 260.427 428.188 L 278.093 428.188 C 278.093 431.528 279.345 434.257 281.849 436.376 C 284.354 438.496 287.442 439.557 291.114 439.557 C 295.313 439.557 298.601 438.446 300.98 436.226 C 303.368 434.007 304.561 431.059 304.561 427.387 C 304.561 418.506 299.669 414.066 289.887 414.066 L 280.534 414.066 Z"></path>
    <path style="fill: rgb(255, 255, 255); white-space: pre;"
        d="M 374.238 314.386 L 374.238 326.479 L 322.439 326.479 L 322.439 316.199 L 346.888 290.149 C 350.239 286.481 352.719 283.28 354.329 280.545 C 355.938 277.81 356.742 275.214 356.742 272.754 C 356.742 269.402 355.896 266.763 354.204 264.838 C 352.512 262.92 350.089 261.961 346.938 261.961 C 343.545 261.961 340.872 263.128 338.921 265.463 C 336.962 267.798 335.983 270.869 335.983 274.68 L 320.938 274.68 C 320.938 270.077 322.035 265.872 324.227 262.061 C 326.428 258.259 329.533 255.274 333.544 253.107 C 337.562 250.947 342.114 249.868 347.2 249.868 C 354.979 249.868 361.023 251.735 365.334 255.471 C 369.645 259.214 371.799 264.491 371.799 271.303 C 371.799 275.039 370.828 278.844 368.886 282.721 C 366.951 286.598 363.633 291.112 358.931 296.265 L 341.748 314.386 L 374.238 314.386 Z"></path>
    <path style="fill: rgb(255, 255, 255); white-space: pre;"
        d="M 400 148.054 L 400 210.355 L 387.625 210.355 L 387.625 162.776 L 372.903 167.256 L 372.903 157.228 L 398.72 148.054 L 400 148.054 Z"></path>
</svg>
