<!--suppress ALL -->
<svg height="500" viewBox="0 0 500 500" width="500" xmlns="http://www.w3.org/2000/svg">
    <ellipse style="fill: #FF5722; stroke-width: 10px;" cx="-184.385" cy="395.949" rx="230" ry="230"
        transform="matrix(1, 0, 0, 1, 434.385223, -145.948853)"></ellipse>
    <line style="stroke: rgb(255, 255, 255); stroke-linecap: round; stroke-width: 15px;" x1="40" x2="460.269" y1="343.595" y2="343.595"></line>
    <line style="stroke: rgb(255, 255, 255); stroke-linecap: round; stroke-width: 15px;" x1="20" x2="478.1" y1="227.646" y2="227.646"></line>
    <line style="stroke: rgb(255, 255, 255); stroke-linecap: round; stroke-width: 15px;" x1="60" x2="448.991" y1="122.646" y2="122.646"></line>
    <line style="stroke: rgb(255, 255, 255); stroke-linecap: round; stroke-width: 15px;" x1="157.5" x2="397.534" y1="461.403" y2="75"></line>
    <path style="fill: rgb(28, 87, 164);"
        d="M 250.015 250.369 M 0.015 250.369 C 0.015 442.818 208.349 563.099 375.015 466.874 C 452.366 422.216 500.015 339.684 500.015 250.369 C 500.015 57.918 291.682 -62.363 125.015 33.862 C 47.665 78.52 0.015 161.052 0.015 250.369 Z M 250.015 250.369 M 25.015 250.369 C 25.015 77.163 212.515 -31.09 362.515 55.513 C 432.131 95.705 475.015 169.984 475.015 250.369 C 475.015 423.573 287.515 531.826 137.515 445.223 C 67.9 405.031 25.015 330.753 25.015 250.369 Z"
        transform="matrix(1, -0.00002, 0.00002, 1, -0.014694, 0.014686)"></path>
    <path style="fill: rgb(255, 255, 255); white-space: pre;"
        d="M 400.575 137.278 L 400.575 212.028 L 385.755 212.028 L 385.755 154.918 L 368.065 160.398 L 368.065 148.348 L 398.985 137.278 L 400.575 137.278 Z"></path>
    <path style="fill: rgb(255, 255, 255); white-space: pre;"
        d="M 361.748 314.989 L 361.748 328.639 L 303.268 328.639 L 303.268 317.039 L 330.868 287.619 C 334.655 283.479 337.458 279.866 339.278 276.779 C 341.091 273.699 341.998 270.772 341.998 267.999 C 341.998 264.206 341.041 261.226 339.128 259.059 C 337.215 256.892 334.481 255.809 330.928 255.809 C 327.095 255.809 324.075 257.126 321.868 259.759 C 319.661 262.399 318.558 265.866 318.558 270.159 L 301.568 270.159 C 301.568 264.966 302.808 260.222 305.288 255.929 C 307.768 251.629 311.275 248.259 315.808 245.819 C 320.341 243.379 325.478 242.159 331.218 242.159 C 340.005 242.159 346.831 244.266 351.698 248.479 C 356.558 252.699 358.988 258.656 358.988 266.349 C 358.988 270.569 357.895 274.869 355.708 279.249 C 353.521 283.622 349.771 288.719 344.458 294.539 L 325.068 314.989 L 361.748 314.989 Z"></path>
    <path style="fill: rgb(255, 255, 255); white-space: pre;"
        d="M 254.366 419.53 L 254.366 404.08 L 264.886 404.08 C 269.899 404.08 273.616 402.827 276.036 400.32 C 278.449 397.813 279.656 394.487 279.656 390.34 C 279.656 386.333 278.459 383.213 276.066 380.98 C 273.673 378.747 270.379 377.63 266.186 377.63 C 262.406 377.63 259.239 378.667 256.686 380.74 C 254.133 382.813 252.856 385.513 252.856 388.84 L 233.106 388.84 C 233.106 383.647 234.506 378.987 237.306 374.86 C 240.106 370.733 244.026 367.51 249.066 365.19 C 254.099 362.863 259.646 361.7 265.706 361.7 C 276.233 361.7 284.483 364.22 290.456 369.26 C 296.423 374.293 299.406 381.23 299.406 390.07 C 299.406 394.63 298.016 398.823 295.236 402.65 C 292.456 406.477 288.813 409.417 284.306 411.47 C 289.906 413.47 294.086 416.477 296.846 420.49 C 299.606 424.503 300.986 429.243 300.986 434.71 C 300.986 443.55 297.759 450.637 291.306 455.97 C 284.859 461.303 276.326 463.97 265.706 463.97 C 255.773 463.97 247.649 461.35 241.336 456.11 C 235.029 450.863 231.876 443.933 231.876 435.32 L 251.626 435.32 C 251.626 439.06 253.026 442.113 255.826 444.48 C 258.633 446.853 262.086 448.04 266.186 448.04 C 270.879 448.04 274.559 446.797 277.226 444.31 C 279.893 441.83 281.226 438.54 281.226 434.44 C 281.226 424.5 275.756 419.53 264.816 419.53 L 254.366 419.53 Z"></path>
</svg>
